<mxfile host="app.diagrams.net" modified="2024-05-17T14:17:07.515Z" agent="Mozilla/5.0 (Windows NT 10.0; Win64; x64) AppleWebKit/537.36 (KHTML, like Gecko) Chrome/124.0.0.0 Safari/537.36" etag="gHx6bw8e0cPk3AiHlNMp" version="24.4.4" type="device">
  <diagram name="Page-1" id="D84whqf-GROaz0kwHA6z">
    <mxGraphModel dx="1050" dy="557" grid="1" gridSize="10" guides="1" tooltips="1" connect="1" arrows="1" fold="1" page="1" pageScale="1" pageWidth="827" pageHeight="1169" math="0" shadow="0">
      <root>
        <mxCell id="0" />
        <mxCell id="1" parent="0" />
        <mxCell id="1eVkryWjFNN4yPCfOCPk-1" style="edgeStyle=orthogonalEdgeStyle;rounded=0;orthogonalLoop=1;jettySize=auto;html=1;entryX=0.5;entryY=1;entryDx=0;entryDy=0;" edge="1" parent="1" source="1eVkryWjFNN4yPCfOCPk-6" target="1eVkryWjFNN4yPCfOCPk-14">
          <mxGeometry relative="1" as="geometry" />
        </mxCell>
        <mxCell id="1eVkryWjFNN4yPCfOCPk-2" style="edgeStyle=orthogonalEdgeStyle;rounded=0;orthogonalLoop=1;jettySize=auto;html=1;" edge="1" parent="1" source="1eVkryWjFNN4yPCfOCPk-6" target="1eVkryWjFNN4yPCfOCPk-15">
          <mxGeometry relative="1" as="geometry" />
        </mxCell>
        <mxCell id="1eVkryWjFNN4yPCfOCPk-3" style="edgeStyle=orthogonalEdgeStyle;rounded=0;orthogonalLoop=1;jettySize=auto;html=1;entryX=0.5;entryY=0;entryDx=0;entryDy=0;" edge="1" parent="1" source="1eVkryWjFNN4yPCfOCPk-6" target="1eVkryWjFNN4yPCfOCPk-19">
          <mxGeometry relative="1" as="geometry" />
        </mxCell>
        <mxCell id="1eVkryWjFNN4yPCfOCPk-4" style="edgeStyle=orthogonalEdgeStyle;rounded=0;orthogonalLoop=1;jettySize=auto;html=1;entryX=0.5;entryY=0;entryDx=0;entryDy=0;" edge="1" parent="1" source="1eVkryWjFNN4yPCfOCPk-6" target="1eVkryWjFNN4yPCfOCPk-17">
          <mxGeometry relative="1" as="geometry" />
        </mxCell>
        <mxCell id="1eVkryWjFNN4yPCfOCPk-5" style="edgeStyle=orthogonalEdgeStyle;rounded=0;orthogonalLoop=1;jettySize=auto;html=1;entryX=0.5;entryY=1;entryDx=0;entryDy=0;" edge="1" parent="1" source="1eVkryWjFNN4yPCfOCPk-6" target="1eVkryWjFNN4yPCfOCPk-16">
          <mxGeometry relative="1" as="geometry" />
        </mxCell>
        <mxCell id="1eVkryWjFNN4yPCfOCPk-6" value="&lt;h3&gt;&lt;font style=&quot;font-size: 15px;&quot;&gt;Tickets&lt;/font&gt;&lt;/h3&gt;" style="whiteSpace=wrap;html=1;align=center;" vertex="1" parent="1">
          <mxGeometry x="300" y="300" width="160" height="77.5" as="geometry" />
        </mxCell>
        <mxCell id="1eVkryWjFNN4yPCfOCPk-7" value="" style="edgeStyle=orthogonalEdgeStyle;rounded=0;orthogonalLoop=1;jettySize=auto;html=1;" edge="1" parent="1" source="1eVkryWjFNN4yPCfOCPk-10" target="1eVkryWjFNN4yPCfOCPk-11">
          <mxGeometry relative="1" as="geometry" />
        </mxCell>
        <mxCell id="1eVkryWjFNN4yPCfOCPk-8" value="" style="edgeStyle=orthogonalEdgeStyle;rounded=0;orthogonalLoop=1;jettySize=auto;html=1;" edge="1" parent="1" source="1eVkryWjFNN4yPCfOCPk-10" target="1eVkryWjFNN4yPCfOCPk-13">
          <mxGeometry relative="1" as="geometry" />
        </mxCell>
        <mxCell id="1eVkryWjFNN4yPCfOCPk-9" style="edgeStyle=orthogonalEdgeStyle;rounded=0;orthogonalLoop=1;jettySize=auto;html=1;entryX=0.5;entryY=1;entryDx=0;entryDy=0;" edge="1" parent="1" source="1eVkryWjFNN4yPCfOCPk-10" target="1eVkryWjFNN4yPCfOCPk-12">
          <mxGeometry relative="1" as="geometry">
            <Array as="points">
              <mxPoint x="840" y="260" />
              <mxPoint x="770" y="260" />
            </Array>
          </mxGeometry>
        </mxCell>
        <mxCell id="1eVkryWjFNN4yPCfOCPk-26" style="edgeStyle=orthogonalEdgeStyle;rounded=0;orthogonalLoop=1;jettySize=auto;html=1;entryX=0.5;entryY=0;entryDx=0;entryDy=0;" edge="1" parent="1" source="1eVkryWjFNN4yPCfOCPk-10" target="1eVkryWjFNN4yPCfOCPk-25">
          <mxGeometry relative="1" as="geometry" />
        </mxCell>
        <mxCell id="1eVkryWjFNN4yPCfOCPk-10" value="&lt;h3&gt;&lt;font style=&quot;font-size: 15px;&quot;&gt;Users&lt;/font&gt;&lt;/h3&gt;" style="whiteSpace=wrap;html=1;align=center;" vertex="1" parent="1">
          <mxGeometry x="760" y="300" width="160" height="77.5" as="geometry" />
        </mxCell>
        <mxCell id="1eVkryWjFNN4yPCfOCPk-11" value="&lt;span style=&quot;border-bottom: 1px dotted&quot;&gt;&lt;font style=&quot;font-size: 13px;&quot;&gt;id&lt;/font&gt;&lt;/span&gt;" style="ellipse;whiteSpace=wrap;html=1;align=center;" vertex="1" parent="1">
          <mxGeometry x="1000" y="180" width="100" height="40" as="geometry" />
        </mxCell>
        <mxCell id="1eVkryWjFNN4yPCfOCPk-12" value="&lt;font style=&quot;font-size: 13px;&quot;&gt;password&lt;/font&gt;" style="ellipse;whiteSpace=wrap;html=1;align=center;" vertex="1" parent="1">
          <mxGeometry x="720" y="180" width="100" height="40" as="geometry" />
        </mxCell>
        <mxCell id="1eVkryWjFNN4yPCfOCPk-13" value="&lt;font style=&quot;font-size: 13px;&quot;&gt;username&lt;/font&gt;" style="ellipse;whiteSpace=wrap;html=1;align=center;" vertex="1" parent="1">
          <mxGeometry x="860" y="180" width="100" height="40" as="geometry" />
        </mxCell>
        <mxCell id="1eVkryWjFNN4yPCfOCPk-14" value="&lt;font style=&quot;font-size: 13px;&quot;&gt;id&lt;/font&gt;" style="ellipse;whiteSpace=wrap;html=1;align=center;fontStyle=4;" vertex="1" parent="1">
          <mxGeometry x="100" y="180" width="100" height="40" as="geometry" />
        </mxCell>
        <mxCell id="1eVkryWjFNN4yPCfOCPk-15" value="&lt;font style=&quot;font-size: 13px;&quot;&gt;title&lt;/font&gt;" style="ellipse;whiteSpace=wrap;html=1;align=center;" vertex="1" parent="1">
          <mxGeometry x="414" y="180" width="100" height="40" as="geometry" />
        </mxCell>
        <mxCell id="1eVkryWjFNN4yPCfOCPk-16" value="&lt;font style=&quot;font-size: 13px;&quot;&gt;author (FK)&lt;/font&gt;" style="ellipse;whiteSpace=wrap;html=1;align=center;" vertex="1" parent="1">
          <mxGeometry x="260" y="180" width="100" height="40" as="geometry" />
        </mxCell>
        <mxCell id="1eVkryWjFNN4yPCfOCPk-17" value="&lt;font style=&quot;font-size: 13px;&quot;&gt;description&lt;/font&gt;" style="ellipse;whiteSpace=wrap;html=1;align=center;" vertex="1" parent="1">
          <mxGeometry x="250" y="450" width="100" height="40" as="geometry" />
        </mxCell>
        <mxCell id="1eVkryWjFNN4yPCfOCPk-18" style="edgeStyle=orthogonalEdgeStyle;rounded=0;orthogonalLoop=1;jettySize=auto;html=1;exitX=1;exitY=1;exitDx=0;exitDy=0;" edge="1" parent="1" source="1eVkryWjFNN4yPCfOCPk-19">
          <mxGeometry relative="1" as="geometry">
            <mxPoint x="490" y="490" as="targetPoint" />
          </mxGeometry>
        </mxCell>
        <mxCell id="1eVkryWjFNN4yPCfOCPk-19" value="&lt;font style=&quot;font-size: 13px;&quot;&gt;date&lt;/font&gt;" style="ellipse;whiteSpace=wrap;html=1;align=center;" vertex="1" parent="1">
          <mxGeometry x="414" y="450" width="100" height="40" as="geometry" />
        </mxCell>
        <mxCell id="1eVkryWjFNN4yPCfOCPk-20" value="&lt;font style=&quot;font-size: 13px;&quot;&gt;Creates&lt;/font&gt;" style="shape=rhombus;perimeter=rhombusPerimeter;whiteSpace=wrap;html=1;align=center;" vertex="1" parent="1">
          <mxGeometry x="550" y="308.75" width="120" height="60" as="geometry" />
        </mxCell>
        <mxCell id="1eVkryWjFNN4yPCfOCPk-21" value="" style="endArrow=none;html=1;rounded=0;exitX=1;exitY=0.5;exitDx=0;exitDy=0;" edge="1" parent="1" source="1eVkryWjFNN4yPCfOCPk-6" target="1eVkryWjFNN4yPCfOCPk-20">
          <mxGeometry relative="1" as="geometry">
            <mxPoint x="550" y="380" as="sourcePoint" />
            <mxPoint x="690" y="380" as="targetPoint" />
            <Array as="points" />
          </mxGeometry>
        </mxCell>
        <mxCell id="1eVkryWjFNN4yPCfOCPk-22" value="1" style="resizable=0;html=1;whiteSpace=wrap;align=right;verticalAlign=bottom;" connectable="0" vertex="1" parent="1eVkryWjFNN4yPCfOCPk-21">
          <mxGeometry x="1" relative="1" as="geometry">
            <mxPoint x="170" as="offset" />
          </mxGeometry>
        </mxCell>
        <mxCell id="1eVkryWjFNN4yPCfOCPk-23" value="" style="endArrow=none;html=1;rounded=0;entryX=0;entryY=0.5;entryDx=0;entryDy=0;" edge="1" parent="1" source="1eVkryWjFNN4yPCfOCPk-20" target="1eVkryWjFNN4yPCfOCPk-10">
          <mxGeometry relative="1" as="geometry">
            <mxPoint x="570" y="410" as="sourcePoint" />
            <mxPoint x="730" y="410" as="targetPoint" />
          </mxGeometry>
        </mxCell>
        <mxCell id="1eVkryWjFNN4yPCfOCPk-24" value="N" style="resizable=0;html=1;whiteSpace=wrap;align=right;verticalAlign=bottom;" connectable="0" vertex="1" parent="1eVkryWjFNN4yPCfOCPk-23">
          <mxGeometry x="1" relative="1" as="geometry">
            <mxPoint x="-240" as="offset" />
          </mxGeometry>
        </mxCell>
        <mxCell id="1eVkryWjFNN4yPCfOCPk-25" value="&lt;font style=&quot;font-size: 13px;&quot;&gt;role&lt;/font&gt;" style="ellipse;whiteSpace=wrap;html=1;align=center;" vertex="1" parent="1">
          <mxGeometry x="790" y="420" width="100" height="40" as="geometry" />
        </mxCell>
      </root>
    </mxGraphModel>
  </diagram>
</mxfile>
